<?xml version="1.0" encoding="UTF-8" standalone="no"?>
<!-- Created with Inkscape (http://www.inkscape.org/) -->

<svg
   version="1.1"
   id="svg25"
   xml:space="preserve"
   width="102.57191mm"
   height="18.520832mm"
   viewBox="0 0 387.67339 69.999995"
   xmlns="http://www.w3.org/2000/svg"
   xmlns:svg="http://www.w3.org/2000/svg"><defs
     id="defs29"><rect
       x="0.089133166"
       y="-0.89001006"
       width="15.502224"
       height="5.9011402"
       id="rect25586" /><rect
       x="-146.05006"
       y="-3.7549345"
       width="65.036751"
       height="148.049"
       id="rect8750" /></defs><g
     id="g31"
     transform="matrix(1.3333333,0,0,-1.3333333,196.92735,-507.96565)"><g
       id="g161525"
       transform="matrix(0.35302093,0,0,0.35302093,-174.23811,-149.49831)" /><text
       xml:space="preserve"
       transform="matrix(0.2647657,0,0,-0.2647657,-322.32864,-324.42482)"
       id="text8748"
       style="font-style:normal;font-weight:normal;font-size:40px;line-height:1.25;font-family:sans-serif;white-space:pre;shape-inside:url(#rect8750);fill:#000000;fill-opacity:1;stroke:none" /><g
       id="g164233"
       transform="translate(50.631603,-90.64945)"><path
         d="m 25.93563,-323.18767 c 1.565544,-1.43654 3.458983,-2.2862 5.503941,-2.2862 2.741668,0 5.157922,1.87191 5.157922,4.56973 0,5.13449 -7.029433,4.37527 -7.029433,6.8342 0,1.1735 1.241562,1.65278 2.350603,1.65278 1.001364,0 2.023368,-0.43457 2.633018,-1.00156 l 1.524113,2.17683 c -1.435748,1.06552 -2.872694,1.43596 -4.418607,1.43596 -2.523384,0 -5.025506,-1.56619 -5.025506,-4.28673 0,-4.85913 7.027926,-3.82876 7.027926,-6.85554 0,-1.10786 -0.913998,-1.91288 -2.220036,-1.91288 -1.391447,0 -2.718759,0.71799 -3.589886,1.67419 z m 23.280711,5.54748 c 0,1.83996 -1.053724,5.00555 -5.004546,5.00555 h -2.175799 v -10.0111 h 2.175799 c 3.950822,0 5.004546,3.16544 5.004546,5.00555 z m 2.937987,0 c 0,-0.57825 -0.0697,-7.61704 -8.269252,-7.61704 H 39.09869 v 15.23393 h 4.786386 c 8.199551,0 8.269252,-7.03878 8.269252,-7.61689 z m 15.446581,7.61689 h -2.937651 l 4.55e-4,-9.03026 c -1.73e-4,-3.74926 -3.179255,-3.80752 -3.58976,-3.80752 -0.410496,0 -3.589749,0.0582 -3.589749,3.80784 l -8.66e-4,9.02994 h -2.937822 l 4.53e-4,-8.8133 c 0,-4.72216 3.102522,-6.63708 6.527573,-6.63708 3.424884,0 6.527909,1.91492 6.527909,6.63708 z m 18.291246,2.34758 c -6.09496,-1.32807 -8.438312,-4.5407 -8.438312,-6.91881 6.367232,0.76963 5.589132,4.76274 8.438312,6.91881 z m 6.53578,-10.78227 c -1.29483,-0.31296 -3.80003,-0.69997 -5.46849,-0.69997 -3.44566,0 -4.21388,1.96596 -4.38511,2.81522 -1.344918,0.30475 -3.561269,0.144 -4.628062,-0.0994 1.051378,-0.23072 1.673989,-1.04424 1.861813,-2.545 0.125495,0.0442 0.651938,0.21697 1.197311,0.21697 1.168833,0 2.159378,-1.34846 2.159378,-2.84212 0,-2.21036 -1.240529,-3.84934 -2.440529,-3.84934 -0.817808,0 -1.072649,0.39846 -1.348937,0.39846 -0.275785,0 -0.498964,-0.41051 -1.284101,-0.41051 -1.221775,0 -2.567366,1.81041 -2.567366,3.86956 0,0.94999 0.509184,2.84815 2.525811,2.84815 0.515047,0 0.776092,-0.13463 0.83825,-0.17193 -0.03435,1.0403 -0.780444,1.97428 -2.125872,1.97428 -1.143694,0 -3.920662,-1.10263 -5.928749,-2.80288 l -0.596641,0.83383 c 1.891128,1.41665 5.949189,3.44676 10.652311,3.44676 0.650264,0 1.241042,-0.048 1.736483,-0.12993 0.22737,0.60627 0.93862,1.78094 3.0355,1.78094 3.28816,0 5.71529,-2.79722 6.767,-4.63309"
         style="fill:#231f20;fill-opacity:1;fill-rule:nonzero;stroke:none;stroke-width:0.016755"
         id="path35" /><g
         id="g163324"
         transform="translate(-87.847392,-93.354915)"><g
           aria-label="VaMoS"
           transform="scale(1,-1)"
           id="text25584"
           style="font-weight:300;font-size:53.6079px;line-height:1.25;font-family:Prompt;-inkscape-font-specification:'Prompt, Light';letter-spacing:0px;white-space:pre;stroke-width:10.7133"><path
             d="m -105.96669,204.48395 h 4.39585 l 12.490636,31.68227 12.544248,-31.68227 h 4.395848 l -14.956604,37.47192 h -3.913376 z"
             id="path1683" /><path
             d="m -62.329993,242.75999 q -4.663887,0 -7.39789,-2.30514 -2.680395,-2.35875 -2.680395,-6.43295 0,-4.23502 2.626787,-6.48655 2.626787,-2.30514 7.612322,-2.30514 5.575221,0 9.595814,2.30514 v -1.92989 q 0,-3.48451 -1.983492,-5.14636 -1.983493,-1.71545 -6.272125,-1.71545 -4.556671,0 -8.41644,1.71545 v -3.48451 q 1.608237,-0.6969 4.074201,-1.12577 2.465963,-0.42886 4.717495,-0.42886 6.1113,0 9.059735,2.78761 2.948434,2.73401 2.948434,7.61232 v 16.13598 h -3.859769 v -3.32369 q -3.377297,4.12781 -10.024677,4.12781 z m 1.01855,-3.3773 q 2.894827,0 5.199967,-1.12576 2.358747,-1.17938 3.538121,-3.27009 v -4.1278 q -2.090708,-1.23299 -4.181416,-1.76906 -2.0371,-0.58969 -4.61028,-0.58969 -3.645337,0 -5.307182,1.3938 -1.608237,1.3402 -1.608237,4.12781 0,5.36079 6.969027,5.36079 z"
             id="path1685" /><path
             d="m -41.208568,204.48395 h 4.288632 l 14.152485,30.93176 14.1524857,-30.93176 h 4.2886319 v 37.47192 h -4.1278082 v -28.94826 l -13.2411514,28.94826 h -2.144316 l -13.24115,-28.94826 v 28.94826 h -4.127809 z"
             id="path1687" /><path
             d="m 16.366266,242.75999 q -4.181416,0 -7.4514976,-1.66184 -3.2164739,-1.66185 -5.0391425,-4.7175 -1.7690606,-3.10926 -1.7690606,-7.23707 0,-4.0742 1.8226685,-7.18345 1.8226686,-3.10926 5.0391425,-4.82472 3.2700817,-1.71545 7.3978897,-1.71545 4.127809,0 7.344282,1.71545 3.270082,1.71546 5.092751,4.82472 1.822668,3.10925 1.822668,7.18345 0,4.12781 -1.822668,7.23707 -1.769061,3.05565 -5.039143,4.7175 -3.216474,1.66184 -7.39789,1.66184 z m 0,-3.27008 q 4.61028,0 7.344282,-2.78761 2.787611,-2.84122 2.787611,-7.55872 0,-4.7711 -2.787611,-7.55871 -2.734002,-2.84122 -7.344282,-2.84122 -4.610279,0 -7.3978897,2.84122 -2.7340028,2.78761 -2.7340028,7.55871 0,4.7175 2.7340028,7.55872 2.7876107,2.78761 7.3978897,2.78761 z"
             id="path1689" /><path
             d="m 45.689694,242.75999 q -3.109258,0 -6.1113,-0.53608 -3.002043,-0.53608 -4.931927,-1.44741 v -3.96699 q 5.039142,2.19793 10.828796,2.19793 4.82471,0 7.076242,-1.55463 2.30514,-1.55463 2.30514,-4.66389 0,-2.19792 -0.964942,-3.48451 -0.911335,-1.28659 -2.680395,-2.14432 -1.769061,-0.91133 -6.111301,-2.68039 -5.307182,-2.14432 -7.719537,-4.66389 -2.358748,-2.57318 -2.358748,-6.48656 0,-2.84121 1.501021,-5.03914 1.55463,-2.19792 4.34224,-3.3773 2.787611,-1.23298 6.432948,-1.23298 2.948435,0 5.307182,0.48247 2.412356,0.42887 4.717495,1.44742 v 3.80616 q -4.503063,-1.9835 -9.43499,-1.9835 -4.288632,0 -6.486556,1.55463 -2.197924,1.55463 -2.197924,4.34224 0,1.87628 0.911335,3.21648 0.911334,1.3402 2.841218,2.46596 1.983493,1.12577 5.414398,2.46596 3.859769,1.50103 6.057693,2.84122 2.197923,1.28659 3.377297,3.32369 1.232982,1.98349 1.232982,5.14636 0,4.7711 -3.377298,7.39789 -3.377297,2.57318 -9.971069,2.57318 z"
             id="path1691" /></g><g
           aria-label="20"
           transform="scale(1,-1)"
           id="text50676"
           style="font-size:24.0479px;line-height:1.25;font-family:Prompt;-inkscape-font-specification:'Prompt, Normal';stroke-width:2.23517"><path
             d="m 66.538065,219.23881 3.631233,-3.48694 q 0.480958,-0.48096 1.346682,-1.25049 1.370731,-1.25049 2.092168,-2.02003 0.721437,-0.76953 1.178347,-1.63525 0.45691,-0.88978 0.45691,-1.89979 0,-1.49097 -0.865725,-2.2605 -0.865724,-0.79358 -2.525029,-0.79358 -1.130251,0 -2.332646,0.40881 -1.178347,0.40882 -2.212407,1.2024 v -2.3567 q 2.020024,-1.46692 4.929819,-1.46692 2.597173,0 4.040047,1.39478 1.442874,1.37073 1.442874,3.75147 0,1.1543 -0.505006,2.21241 -0.480958,1.05811 -1.37073,2.09217 -0.889772,1.01001 -2.40479,2.47693 l -3.270514,3.19837 h 8.176286 v 2.04407 H 66.538065 Z"
             id="path1699" /><path
             d="m 87.507818,221.21074 q -2.164311,0 -3.751472,-1.05811 -1.563114,-1.05811 -2.40479,-3.03003 -0.841677,-1.97193 -0.841677,-4.6653 0,-2.69336 0.817629,-4.66529 0.841676,-1.99597 2.40479,-3.05408 1.587161,-1.05811 3.77552,-1.05811 2.188359,0 3.751472,1.05811 1.587162,1.05811 2.40479,3.05408 0.841677,1.97193 0.841677,4.66529 0,2.69337 -0.841677,4.6653 -0.841676,1.97192 -2.428838,3.03003 -1.563113,1.05811 -3.727424,1.05811 z m 0,-2.16431 q 2.140263,0 3.342658,-1.7555 1.226443,-1.77954 1.226443,-4.80958 0,-3.03003 -1.202395,-4.80958 -1.202395,-1.77954 -3.366706,-1.77954 -2.164311,0 -3.366706,1.77954 -1.202395,1.77955 -1.202395,4.80958 0,3.03004 1.202395,4.80958 1.226443,1.7555 3.366706,1.7555 z"
             id="path1701" /></g><g
           aria-label="23"
           transform="scale(1,-1)"
           id="text52506"
           style="font-size:24.2519px;line-height:1.25;font-family:Prompt;-inkscape-font-specification:'Prompt, Normal';stroke-width:2.25413"><path
             d="m 67.607784,240.7713 3.662037,-3.51652 q 0.485038,-0.48504 1.358107,-1.2611 1.382358,-1.2611 2.109915,-2.03716 0.727557,-0.77606 1.188343,-1.64913 0.460786,-0.89732 0.460786,-1.9159 0,-1.50362 -0.873068,-2.27968 -0.873069,-0.80031 -2.54645,-0.80031 -1.139839,0 -2.352434,0.41228 -1.188343,0.41228 -2.231175,1.21259 v -2.37668 q 2.03716,-1.47937 4.97164,-1.47937 2.619205,0 4.074319,1.40661 1.455114,1.38236 1.455114,3.7833 0,1.16409 -0.50929,2.23117 -0.485038,1.06709 -1.382358,2.10992 -0.897321,1.01858 -2.42519,2.49795 l -3.298259,3.2255 h 8.245646 v 2.06141 H 67.607784 Z"
             id="path1694" /><path
             d="m 86.863778,242.75996 q -1.479366,0 -2.837472,-0.24252 -1.333855,-0.21827 -2.328183,-0.67905 v -2.03716 q 2.255427,1.01858 4.85038,1.01858 2.231175,0 3.298258,-0.80032 1.091336,-0.82456 1.091336,-2.32818 0,-1.55212 -1.115587,-2.20692 -1.115588,-0.67906 -3.395266,-0.67906 h -1.988656 v -1.98865 h 1.940152 q 1.818892,0 2.93448,-0.72756 1.115587,-0.75181 1.115587,-2.18267 0,-1.40661 -0.921572,-2.13417 -0.921572,-0.72755 -2.667709,-0.72755 -1.358106,0 -2.449442,0.31527 -1.091335,0.31528 -2.255427,1.04283 v -2.03716 q 2.134168,-1.28535 4.995892,-1.28535 2.837472,0 4.316838,1.2611 1.479366,1.2611 1.479366,3.49228 0,1.3581 -0.727557,2.37668 -0.727557,1.01858 -2.182671,1.57637 1.649129,0.38804 2.522197,1.40661 0.897321,1.01858 0.897321,2.57071 0,2.30393 -1.576374,3.66203 -1.576373,1.33386 -4.995891,1.33386 z"
             id="path1696" /></g></g><path
         style="fill:none;stroke:#000000;stroke-width:0.527261px;stroke-linecap:butt;stroke-linejoin:miter;stroke-opacity:1"
         d="m 17.421634,-290.3248 v -52.5 z"
         id="path161431" /></g></g></svg>
