<?xml version="1.0" encoding="UTF-8" standalone="no"?>
<!-- Created with Inkscape (http://www.inkscape.org/) -->

<svg
   version="1.1"
   id="svg25"
   xml:space="preserve"
   width="102.57191mm"
   height="18.520832mm"
   viewBox="0 0 387.67339 69.999995"
   xmlns="http://www.w3.org/2000/svg"
   xmlns:svg="http://www.w3.org/2000/svg"><defs
     id="defs29"><rect
       x="0.089133166"
       y="-0.89001006"
       width="15.502224"
       height="5.9011402"
       id="rect25586" /><rect
       x="-146.05006"
       y="-3.7549345"
       width="65.036751"
       height="148.049"
       id="rect8750" /></defs><g
     id="g31"
     transform="matrix(1.3333333,0,0,-1.3333333,196.92735,-507.96565)"><g
       id="g161525"
       transform="matrix(0.35302093,0,0,0.35302093,-174.23811,-149.49831)" /><g
       transform="matrix(0.2647657,0,0,-0.2647657,-322.32864,-324.42482)"
       id="text8748"
       style="font-size:40px;line-height:1.25;white-space:pre;shape-inside:url(#rect8750)" /><path
       d="m 76.567233,-413.83712 c 1.565544,-1.43654 3.458983,-2.2862 5.503941,-2.2862 2.741668,0 5.157922,1.87191 5.157922,4.56973 0,5.13449 -7.029433,4.37527 -7.029433,6.8342 0,1.1735 1.241562,1.65278 2.350603,1.65278 1.001364,0 2.023368,-0.43457 2.633018,-1.00156 l 1.524113,2.17683 c -1.435748,1.06552 -2.872694,1.43596 -4.418607,1.43596 -2.523384,0 -5.025506,-1.56619 -5.025506,-4.28673 0,-4.85913 7.027926,-3.82876 7.027926,-6.85554 0,-1.10786 -0.913998,-1.91288 -2.220036,-1.91288 -1.391447,0 -2.718759,0.71799 -3.589886,1.67419 z m 23.280711,5.54748 c 0,1.83996 -1.053724,5.00555 -5.004546,5.00555 h -2.175799 v -10.0111 h 2.175799 c 3.950822,0 5.004546,3.16544 5.004546,5.00555 z m 2.937986,0 c 0,-0.57825 -0.0697,-7.61704 -8.269251,-7.61704 h -4.786386 v 15.23393 h 4.786386 c 8.199551,0 8.269251,-7.03878 8.269251,-7.61689 z m 15.44658,7.61689 h -2.93765 l 4.6e-4,-9.03026 c -1.8e-4,-3.74926 -3.17926,-3.80752 -3.58976,-3.80752 -0.4105,0 -3.58975,0.0582 -3.58975,3.80784 l -8.7e-4,9.02994 h -2.93782 l 4.5e-4,-8.8133 c 0,-4.72216 3.10252,-6.63708 6.52758,-6.63708 3.42488,0 6.5279,1.91492 6.5279,6.63708 z m 18.29125,2.34758 c -6.09496,-1.32807 -8.43831,-4.5407 -8.43831,-6.91881 6.36723,0.76963 5.58913,4.76274 8.43831,6.91881 z m 6.53578,-10.78227 c -1.29483,-0.31296 -3.80003,-0.69997 -5.46849,-0.69997 -3.44566,0 -4.21388,1.96596 -4.38511,2.81522 -1.34492,0.30475 -3.56127,0.144 -4.62806,-0.0994 1.05137,-0.23072 1.67398,-1.04424 1.86181,-2.545 0.12549,0.0442 0.65194,0.21697 1.19731,0.21697 1.16883,0 2.15938,-1.34846 2.15938,-2.84212 0,-2.21036 -1.24053,-3.84934 -2.44053,-3.84934 -0.81781,0 -1.07265,0.39846 -1.34894,0.39846 -0.27578,0 -0.49896,-0.41051 -1.2841,-0.41051 -1.22177,0 -2.56736,1.81041 -2.56736,3.86956 0,0.94999 0.50918,2.84815 2.52581,2.84815 0.51504,0 0.77609,-0.13463 0.83825,-0.17193 -0.0343,1.0403 -0.78045,1.97428 -2.12588,1.97428 -1.14369,0 -3.92066,-1.10263 -5.92874,-2.80288 l -0.59665,0.83383 c 1.89113,1.41665 5.94919,3.44676 10.65231,3.44676 0.65027,0 1.24105,-0.048 1.73649,-0.12993 0.22737,0.60627 0.93862,1.78094 3.0355,1.78094 3.28816,0 5.71529,-2.79722 6.767,-4.63309"
       style="fill:#231f20;fill-opacity:1;fill-rule:nonzero;stroke:none;stroke-width:0.016755"
       id="path35" /><path
       d="m -132.77535,-425.9602 -14.92016,39.08037 h 5.52307 l 12.38113,-32.9029 12.40729,32.9029 h 5.49691 l -14.89399,-39.08037 z"
       id="path467"
       style="font-size:53.6079px;line-height:1.25;font-family:Prompt;-inkscape-font-specification:'Prompt, Normal';letter-spacing:0px;white-space:pre;stroke-width:10.7133" /><path
       d="m -97.228704,-411.22326 q -5.837186,0 -8.088296,-1.33497 -2.25112,-1.33496 -2.25112,-4.55457 0,-2.56523 1.67525,-4.08342 1.70142,-1.49201 4.60693,-1.49201 4.004884,0 6.413052,2.82697 2.434343,2.85316 2.434343,7.56479 v 1.07321 z m 9.606493,1.98935 v -16.72629 h -4.816334 v 4.44987 q -1.649071,-2.66992 -4.10959,-3.95253 -2.460519,-1.25644 -6.020415,-1.25644 -4.50223,0 -7.17215,2.51287 -2.64375,2.53905 -2.64375,6.77952 0,4.94721 3.29814,7.46008 3.32432,2.51287 9.894426,2.51287 h 6.753339 v 0.47116 q 0,3.32432 -2.198762,5.13045 -2.172586,1.8323 -6.125123,1.8323 -2.51287,0 -4.89486,-0.60204 -2.38199,-0.60204 -4.58075,-1.80613 v 4.44988 q 2.64375,1.02085 5.13044,1.51819 2.4867,0.52351 4.84251,0.52351 6.360704,0 9.501792,-3.29814 3.141087,-3.29814 3.141087,-9.99913 z"
       id="path469"
       style="font-size:53.6079px;line-height:1.25;font-family:Prompt;-inkscape-font-specification:'Prompt, Normal';letter-spacing:0px;white-space:pre;stroke-width:10.7133" /><path
       d="m -77.492202,-386.87983 h 7.878895 l 9.972954,-26.59455 10.025305,26.59455 h 7.878896 v -39.08037 h -5.156619 v 34.31638 l -10.077657,-26.80395 h -5.313674 l -10.077656,26.80395 v -34.31638 h -5.130444 z"
       id="path471"
       style="font-size:53.6079px;line-height:1.25;font-family:Prompt;-inkscape-font-specification:'Prompt, Normal';letter-spacing:0px;white-space:pre;stroke-width:10.7133" /><path
       d="m -20.088822,-400.02005 q -3.874009,0 -6.125122,-3.03639 -2.251113,-3.0102 -2.251113,-8.27153 0,-5.26132 2.224938,-8.2977 2.251113,-3.01021 6.151297,-3.01021 3.847832,0 6.098945,3.03638 2.251113,3.03639 2.251113,8.27153 0,5.20897 -2.251113,8.24536 -2.251113,3.06256 -6.098945,3.06256 z m 0,4.08341 q 6.282175,0 9.86825,-4.08341 3.586076,-4.08342 3.586076,-11.30792 0,-7.19832 -3.586076,-11.30791 -3.586075,-4.08342 -9.86825,-4.08342 -6.308352,0 -9.894427,4.08342 -3.5599,4.10959 -3.5599,11.30791 0,7.2245 3.5599,11.30792 3.586075,4.08341 9.894427,4.08341 z"
       id="path473"
       style="font-size:53.6079px;line-height:1.25;font-family:Prompt;-inkscape-font-specification:'Prompt, Normal';letter-spacing:0px;white-space:pre;stroke-width:10.7133" /><path
       d="m 24.985791,-388.16244 v -5.15662 q -3.01021,1.43966 -5.680134,2.14641 -2.669925,0.70674 -5.156619,0.70674 -4.318996,0 -6.674812,-1.67525 -2.32964,-1.67524 -2.32964,-4.76398 0,-2.5914 1.544368,-3.92636 1.570544,-1.30879 5.915716,-2.12023 l 3.193439,-0.6544 q 5.915715,-1.12555 8.716518,-3.97871 2.82698,-2.82698 2.82698,-7.59096 0,-5.68013 -3.821657,-8.61182 -3.795481,-2.93168 -11.150862,-2.93168 -2.774628,0 -5.915715,0.62822 -3.114913,0.62822 -6.465406,1.85848 v 5.44455 q 3.219615,-1.80613 6.308351,-2.72228 3.088736,-0.91615 6.07277,-0.91615 4.528402,0 6.98892,1.77995 2.460519,1.77995 2.460519,5.07809 0,2.87933 -1.77995,4.50223 -1.753774,1.6229 -5.784836,2.43434 l -3.219615,0.62822 q -5.915716,1.17791 -8.559465,3.69078 -2.643749,2.51287 -2.643749,6.98892 0,5.18279 3.638427,8.16683 3.664603,2.98403 10.077657,2.98403 2.748452,0 5.601606,-0.49734 2.853155,-0.49734 5.837189,-1.49201 z"
       id="path475"
       style="font-size:53.6079px;line-height:1.25;font-family:Prompt;-inkscape-font-specification:'Prompt, Normal';letter-spacing:0px;white-space:pre;stroke-width:10.7133" /><path
       d="m 32.85478,-402.85823 h 8.278208 v -1.99616 H 30.001441 v 1.99616 q 1.350346,1.39732 3.675289,3.74575 2.336685,2.36017 2.935535,3.04121 1.138987,1.27989 1.585188,2.16055 0.457944,0.89241 0.457944,1.74958 0,1.39732 -0.98634,2.27798 -0.974598,0.88066 -2.548044,0.88066 -1.115503,0 -2.36017,-0.38749 -1.232924,-0.38749 -2.641981,-1.17422 v 2.3954 q 1.432541,0.57536 2.677208,0.86892 1.244666,0.29355 2.277974,0.29355 2.724176,0 4.344592,-1.36209 1.620415,-1.36208 1.620415,-3.64006 0,-1.08028 -0.410975,-2.05487 -0.399233,-0.96286 -1.467767,-2.27798 -0.293554,-0.34052 -1.867,-1.97268 -1.573447,-1.62041 -4.438529,-4.54421 z"
       id="path478"
       style="font-size:24.0479px;line-height:1.25;font-family:Prompt;-inkscape-font-specification:'Prompt, Normal';stroke-width:2.23517" /><path
       d="m 51.184257,-388.88508 q -1.83177,0 -2.7594,-1.80829 -0.91589,-1.79655 -0.91589,-5.41313 0,-3.60483 0.91589,-5.41312 0.92763,-1.79655 2.7594,-1.79655 1.84352,0 2.7594,1.79655 0.92763,1.80829 0.92763,5.41312 0,3.61658 -0.92763,5.41313 -0.91588,1.80829 -2.7594,1.80829 z m 0,1.87874 q 2.94728,0 4.49724,-2.33668 1.5617,-2.32495 1.5617,-6.76348 0,-4.42678 -1.5617,-6.76347 -1.54996,-2.32494 -4.49724,-2.32494 -2.94728,0 -4.50898,2.32494 -1.549963,2.33669 -1.549963,6.76347 0,4.43853 1.549963,6.76348 1.5617,2.33668 4.50898,2.33668 z"
       id="path480"
       style="font-size:24.0479px;line-height:1.25;font-family:Prompt;-inkscape-font-specification:'Prompt, Normal';stroke-width:2.23517" /><path
       d="m 33.954466,-424.38745 h 8.348432 v -2.0131 H 31.076921 v 2.0131 q 1.361801,1.40917 3.706467,3.77752 2.356508,2.38019 2.960437,3.06701 1.14865,1.29075 1.598636,2.17888 0.461829,0.89998 0.461829,1.76442 0,1.40917 -0.994707,2.2973 -0.982865,0.88813 -2.56966,0.88813 -1.124966,0 -2.380191,-0.39077 -1.243383,-0.39078 -2.664393,-1.18418 v 2.41572 q 1.444693,0.58024 2.699918,0.87629 1.255226,0.29604 2.297299,0.29604 2.747286,0 4.381447,-1.37364 1.634161,-1.37365 1.634161,-3.67094 0,-1.08945 -0.414461,-2.07231 -0.402619,-0.97102 -1.480218,-2.2973 -0.296044,-0.34341 -1.882838,-1.98941 -1.586794,-1.63416 -4.476181,-4.58276 z"
       id="path483"
       style="font-size:24.2519px;line-height:1.25;font-family:Prompt;-inkscape-font-specification:'Prompt, Normal';stroke-width:2.25413" /><path
       d="m 54.570947,-416.86794 q 1.71706,-0.36709 2.67624,-1.52759 0.97102,-1.16049 0.97102,-2.8657 0,-2.61702 -1.79995,-4.04988 -1.79994,-1.43285 -5.11563,-1.43285 -1.11312,0 -2.2973,0.225 -1.17233,0.21315 -2.42756,0.65129 v 2.30914 q 0.99471,-0.58024 2.17888,-0.87629 1.18418,-0.29604 2.47493,-0.29604 2.24993,0 3.42226,0.88813 1.18418,0.88813 1.18418,2.5815 0,1.56311 -1.10128,2.4394 -1.08944,0.88813 -3.04333,0.88813 h -2.06047 v 1.96573 h 2.1552 q 1.76442,0 2.69992,0.69867 0.9355,0.7105 0.9355,2.03678 0,1.3618 -0.97103,2.08414 -0.95918,0.73419 -2.75912,0.73419 -0.98287,0 -2.10783,-0.21315 -1.12497,-0.21315 -2.47493,-0.66314 v 2.13152 q 1.3618,0.37893 2.54598,0.5684 1.19601,0.18947 2.24993,0.18947 2.7236,0 4.31039,-1.24338 1.5868,-1.23155 1.5868,-3.33938 0,-1.46837 -0.84077,-2.48676 -0.84076,-1.00655 -2.39203,-1.39733 z"
       id="path485"
       style="font-size:24.2519px;line-height:1.25;font-family:Prompt;-inkscape-font-specification:'Prompt, Normal';stroke-width:2.25413" /><path
       style="fill:none;stroke:#000000;stroke-width:0.527261px;stroke-linecap:butt;stroke-linejoin:miter;stroke-opacity:1"
       d="m 68.053237,-380.97425 v -52.5 z"
       id="path161431" /></g></svg>
